<svg xmlns="http://www.w3.org/2000/svg" width="32" height="32" viewBox="0 0 32 32" version="1.1">
  <title>
    check icon
  </title>
  <desc>
    check icon
  </desc>
  <g stroke="none" stroke-width="1" fill="none" fill-rule="evenodd">
    <g transform="translate(-100.000000, -1139.000000)" fill="#F7F7F7">
      <g transform="translate(99.000000, 98.000000)">
        <path d="M23 1050.1C22.5 1049.8 21.9 1050 21.7 1050.4L15.3 1061.5 11.7 1058.2C11.3 1057.8 10.7 1057.8 10.3 1058.2 9.9 1058.5 9.9 1059.2 10.2 1059.6L14.8 1063.8C15.2 1064.2 15.8 1064.2 16.2 1063.8 16.3 1063.7 23.4 1051.4 23.4 1051.4 23.7 1051 23.5 1050.3 23 1050.1L23 1050.1ZM17 1071C9.3 1071 3 1064.7 3 1057 3 1049.3 9.3 1043 17 1043 24.7 1043 31 1049.3 31 1057 31 1064.7 24.7 1071 17 1071L17 1071ZM17 1041C8.2 1041 1 1048.2 1 1057 1 1065.8 8.2 1073 17 1073 25.8 1073 33 1065.8 33 1057 33 1048.2 25.8 1041 17 1041L17 1041Z"/>
      </g>
    </g>
  </g>
</svg>
