<svg xmlns="http://www.w3.org/2000/svg" width="32" height="32" viewBox="0 0 32 32" version="1.1">
  <title>
    Fill 23
  </title>
  <desc>
    Created with Sketch.
  </desc>
  <g stroke="none" stroke-width="1" fill="none" fill-rule="evenodd">
    <g transform="translate(-568.000000, -1087.000000)" fill="#F7F7F7">
      <g transform="translate(99.000000, 98.000000)">
        <path d="M485 1019C477.3 1019 471 1012.7 471 1005 471 997.3 477.3 991 485 991 492.7 991 499 997.3 499 1005 499 1012.7 492.7 1019 485 1019L485 1019ZM485 989C476.2 989 469 996.2 469 1005 469 1013.8 476.2 1021 485 1021 493.8 1021 501 1013.8 501 1005 501 996.2 493.8 989 485 989L485 989ZM490.7 999.3C490.3 998.9 489.7 998.9 489.3 999.3L485 1003.6 480.8 999.3C480.4 999 479.7 999 479.3 999.3 479 999.7 479 1000.4 479.3 1000.8L483.6 1005 479.3 1009.3C478.9 1009.7 478.9 1010.3 479.3 1010.7 479.7 1011.1 480.3 1011.1 480.7 1010.7L485 1006.4 489.2 1010.7C489.6 1011.1 490.3 1011.1 490.7 1010.7 491 1010.3 491 1009.6 490.7 1009.2L486.4 1005 490.7 1000.7C491.1 1000.3 491.1 999.7 490.7 999.3L490.7 999.3Z"/>
      </g>
    </g>
  </g>
</svg>
