<?xml version="1.0" encoding="UTF-8" standalone="no"?>
<svg width="62px" height="60px" viewBox="0 0 62 60" version="1.1" xmlns="http://www.w3.org/2000/svg" xmlns:xlink="http://www.w3.org/1999/xlink" xmlns:sketch="http://www.bohemiancoding.com/sketch/ns">
    <!-- Generator: Sketch 3.3.2 (12043) - http://www.bohemiancoding.com/sketch -->
    <title>github icon</title>
    <desc>Created with Sketch.</desc>
    <defs></defs>
    <g id="Home" stroke="none" stroke-width="1" fill="none" fill-rule="evenodd" sketch:type="MSPage">
        <g id="Desktop-HD" sketch:type="MSArtboardGroup" transform="translate(-1251.000000, -807.000000)" fill="#F5F5F5">
            <g id="Sidenav" sketch:type="MSLayerGroup" transform="translate(0.000000, 3.000000)">
                <g id="creator-info" transform="translate(1218.000000, 804.000000)" sketch:type="MSShapeGroup">
                    <path d="M51.0228099,49.0136601 C49.713478,48.6157124 48.408302,47.704129 47.3536961,45.9106895 C47.3536961,45.9106895 45.7145791,42.957418 42.6016427,42.7404304 C42.6016427,42.7404304 39.5764887,42.7012097 42.3896304,44.6102924 C42.3896304,44.6102924 44.4214579,45.5561747 45.8316222,49.1110009 C45.8316222,49.1110009 47.6514374,54.6008872 56.2756674,52.7401936 C56.2890144,55.3104262 56.3177618,57.7339629 56.3177618,58.4669325 C56.3177618,59.278853 55.7489733,60.2313569 54.199692,59.9466245 C41.8824435,55.8788724 33,44.3494999 33,30.7592553 C33,13.7705582 46.8814168,0 64,0 C81.1201232,0 94.9994867,13.7705582 95,30.7597647 C95,44.345425 86.1288501,55.871232 73.8177618,59.9430589 C72.2469199,60.2451097 71.6889117,59.285984 71.6889117,58.4674419 C71.6889117,57.4543241 71.7243326,54.1419534 71.7243326,50.0263215 C71.7243326,47.156585 70.7335729,45.2846856 69.6216632,44.3301442 C76.5246407,43.5686504 83.776694,40.9673469 83.776694,29.153242 C83.776694,25.7950289 82.573922,23.0511045 80.5862423,20.8970194 C80.9081109,20.1217729 81.9691992,16.9932814 80.2818275,12.7564216 C80.2818275,12.7564216 77.6822382,11.9302391 71.7654004,15.9098718 C69.2879877,15.2278383 66.6339836,14.8860574 63.9994867,14.8743421 C61.3649897,14.8865668 58.713039,15.2283476 56.2402464,15.9098718 C50.3167351,11.9302391 47.7135524,12.7564216 47.7135524,12.7564216 C46.0302875,16.9937907 47.0913758,20.1222823 47.4132444,20.8970194 C45.4296715,23.0511045 44.2186858,25.7950289 44.2186858,29.153242 C44.2186858,40.9393321 51.4573922,43.5773096 58.3429158,44.3545935 C57.4563655,45.122709 56.6529774,46.4801544 56.3747433,48.4676787 C55.3695163,48.9139997 53.4865761,49.5456845 51.5407031,49.1451935 C51.8763629,49.2852233 52.0651426,49.5038408 51.9794001,49.7013068 C51.8642121,49.9527784 51.3329368,50.0670837 50.79696,49.9596899 C50.2609832,49.8496379 49.9115012,49.5551024 50.0196369,49.3015042 C50.1183202,49.0765927 50.5498276,48.9578978 51.0228099,49.0136601 L51.0228099,49.0136601 Z M44.9731266,44.7756655 C44.8931037,45.003673 44.6091126,45.071848 44.3503918,44.9150455 C44.086256,44.765818 43.9388453,44.4560005 44.0242833,44.227993 C44.1025012,43.9939254 44.3870941,43.9287804 44.6500265,44.0855829 C44.9141624,44.2348105 45.0645814,44.547658 44.9731266,44.7756655 Z M45.8963271,45.9224902 C45.7337676,46.0695865 45.4154217,46.0012721 45.200369,45.7687827 C44.9768495,45.5368443 44.9356452,45.2266748 45.1004626,45.0773748 C45.2681021,44.9302784 45.576288,44.9991438 45.7992429,45.2310822 C46.0227624,45.4657753 46.0662245,45.7731901 45.8963271,45.9224902 Z M46.8510559,46.9521308 C46.6574421,47.0710632 46.340334,46.9599674 46.144627,46.7119612 C45.9510132,46.464416 45.9510132,46.1670851 46.1493365,46.0486137 C46.3450435,45.9296814 46.6574421,46.0370893 46.8557654,46.2823296 C47.048856,46.5340237 47.048856,46.8313545 46.8510559,46.9521308 Z M48.9165347,48.9007135 C48.7701305,49.0656165 48.4583027,49.0213412 48.2300713,48.7958985 C47.9965322,48.576329 47.9315128,48.2636911 48.0779171,48.0987881 C48.2265328,47.9338851 48.5401298,47.9799676 48.7696881,48.2031514 C49.0019003,48.4231726 49.0726697,48.7371659 48.9165347,48.9007135 Z M53.9997192,50.4891195 C54.0128195,50.7655058 53.5658687,50.9947178 53.0125746,50.9997127 C52.456198,51.0091476 52.0053942,50.7849306 52,50.5129842 C52,50.2338229 52.4369329,50.0073859 52.9933095,50.000171 C53.5466036,49.9929561 53.9997192,50.2149532 53.9997192,50.4891195 Z M56.9925437,50.3757879 C57.0590984,50.6397474 56.6729262,50.9113263 56.1211411,50.9837111 C55.5786426,51.0539189 55.0763866,50.8901007 55.0075102,50.6283182 C54.9401815,50.3572835 55.3333188,50.0857045 55.8750433,50.0154967 C56.4276024,49.9480102 56.9221195,50.1069301 56.9925437,50.3757879 Z" id="github-icon"></path>
                </g>
            </g>
        </g>
    </g>
</svg>